<svg width="332" height="184" viewBox="0 0 332 184" fill="none" xmlns="http://www.w3.org/2000/svg">
<rect width="332" height="184" rx="20" fill="#EB302F"/>
<path fill-rule="evenodd" clip-rule="evenodd" d="M45 83.8647L50.4368 81.9154V84.6427C51.7603 82.8717 53.5846 81.561 56.4094 81.561C60.8795 81.561 65.1358 85.0317 65.1358 91.4426C65.1358 97.7831 60.9515 101.254 56.4094 101.254C53.5126 101.254 51.7243 99.9442 50.4368 98.4207L50.3892 107.045H45V83.8647ZM59.7 91.3723C59.7 88.2193 57.5539 86.1296 55.0139 86.1296C52.475 86.1296 50.3648 88.2193 50.3648 91.4426C50.3648 94.5955 52.475 96.6853 55.0139 96.6853C57.5539 96.6853 59.7 94.6312 59.7 91.3723Z" fill="white"/>
<path fill-rule="evenodd" clip-rule="evenodd" d="M89.3682 81.6109H94.805V84.701C95.9135 82.0796 97.7018 81.4379 100.92 81.5794V86.2119H100.635C97.0221 86.2119 94.805 89.0493 94.805 93.5832V100.596H89.3682V81.6109Z" fill="white"/>
<path fill-rule="evenodd" clip-rule="evenodd" d="M105.428 95.5342V86.5376H103.139V81.9324H105.428V78.9545L110.865 77V81.9324H115.371V86.5376H110.865V94.6492C110.865 95.8886 111.4 96.4904 112.617 96.4904C113.618 96.4904 114.512 96.2419 115.299 95.8173V100.138C114.155 100.811 112.831 101.236 111.007 101.236C107.681 101.236 105.428 99.9265 105.428 95.5342Z" fill="white"/>
<path fill-rule="evenodd" clip-rule="evenodd" d="M118.438 81.9154H123.874V84.6071C125.126 83.0133 126.772 81.561 129.525 81.561C132.029 81.561 133.925 82.6589 134.926 84.5725C136.607 82.6243 138.609 81.561 141.22 81.561C145.262 81.561 147.694 83.9696 147.694 88.5391V100.9H142.258V90.3101C142.258 87.7601 141.113 86.4494 139.074 86.4494C137.036 86.4494 135.783 87.7601 135.783 90.3101V100.9H130.349V90.3101C130.349 87.7601 129.203 86.4494 127.165 86.4494C125.126 86.4494 123.874 87.7601 123.874 90.3101V100.9H118.438V81.9154Z" fill="white"/>
<path fill-rule="evenodd" clip-rule="evenodd" d="M170.456 81.9154H175.893V84.6071C177.144 83.0133 178.755 81.561 181.509 81.561C185.621 81.561 188.017 84.2527 188.017 88.6104V100.9H182.581V90.3101C182.581 87.7601 181.366 86.4494 179.292 86.4494C177.216 86.4494 175.893 87.7601 175.893 90.3101V100.9H170.456V81.9154Z" fill="white"/>
<path fill-rule="evenodd" clip-rule="evenodd" d="M190.347 91.4426C190.347 86.0237 194.245 81.561 199.825 81.561C206.227 81.561 209.159 86.484 209.159 91.8683C209.159 92.2929 209.123 92.7889 209.087 93.2849H195.747C196.284 95.729 198.001 97.0041 200.433 97.0041C202.257 97.0041 203.58 96.4368 205.082 95.0559C205.082 95.0559 206.17 97.997 206.642 99.3119C205.01 100.587 202.931 101.325 200.362 101.325C194.603 101.325 190.347 97.3228 190.347 91.4426ZM203.866 89.9201C203.544 87.5116 202.114 85.8821 199.825 85.8821C197.572 85.8821 196.104 87.4759 195.675 89.9201H203.866Z" fill="white"/>
<path fill-rule="evenodd" clip-rule="evenodd" d="M217.885 91.4426C217.885 86.0237 222.07 81.561 227.936 81.561C230.61 81.561 232.52 82.2992 234.058 83.4872C233.649 84.5463 232.37 88.0778 232.37 88.0778C231.189 86.9799 230.045 86.2009 227.9 86.2009C225.181 86.2009 223.25 88.5737 223.25 91.4426C223.25 94.347 225.146 96.6843 228.114 96.6843C229.938 96.6843 231.189 95.9062 232.514 94.6658C232.514 94.6658 233.918 98.515 234.203 99.2658C232.64 100.516 230.72 101.325 227.864 101.325C222.106 101.325 217.885 96.9328 217.885 91.4426Z" fill="black"/>
<path fill-rule="evenodd" clip-rule="evenodd" d="M257.664 81.9154H263.101V84.6071C264.352 83.0133 265.998 81.561 268.752 81.561C271.256 81.561 273.152 82.6589 274.152 84.5725C275.834 82.6243 277.836 81.561 280.447 81.561C284.488 81.561 286.92 83.9696 286.92 88.5391V100.9H281.484V90.3101C281.484 87.7601 280.34 86.4494 278.301 86.4494C276.263 86.4494 275.01 87.7601 275.01 90.3101V100.9H269.575V90.3101C269.575 87.7601 268.43 86.4494 266.392 86.4494C264.352 86.4494 263.101 87.7601 263.101 90.3101V100.9H257.664V81.9154Z" fill="black"/>
<path fill-rule="evenodd" clip-rule="evenodd" d="M215.956 98.2499C215.956 99.9097 214.676 101.255 213.096 101.255C211.516 101.255 210.236 99.9097 210.236 98.2499C210.236 96.59 211.516 95.2448 213.096 95.2448C214.676 95.2448 215.956 96.59 215.956 98.2499Z" fill="black"/>
<path fill-rule="evenodd" clip-rule="evenodd" d="M76.5197 101.569C70.9495 101.569 66.418 97.0817 66.418 91.5652C66.418 86.0488 70.9495 81.561 76.5197 81.561C82.09 81.561 86.6215 86.0488 86.6215 91.5652C86.6215 97.0817 82.09 101.569 76.5197 101.569ZM76.5197 86.8048C73.8686 86.8048 71.7129 88.9397 71.7129 91.5652C71.7129 94.1898 73.8686 96.3257 76.5197 96.3257C79.1699 96.3257 81.3266 94.1898 81.3266 91.5652C81.3266 88.9397 79.1699 86.8048 76.5197 86.8048Z" fill="white"/>
<path fill-rule="evenodd" clip-rule="evenodd" d="M159.139 101.569C153.569 101.569 149.037 97.0817 149.037 91.5652C149.037 86.0488 153.569 81.561 159.139 81.561C164.709 81.561 169.241 86.0488 169.241 91.5652C169.241 97.0817 164.709 101.569 159.139 101.569ZM159.139 86.8048C156.489 86.8048 154.332 88.9397 154.332 91.5652C154.332 94.1898 156.489 96.3257 159.139 96.3257C161.79 96.3257 163.946 94.1898 163.946 91.5652C163.946 88.9397 161.79 86.8048 159.139 86.8048Z" fill="white"/>
<path fill-rule="evenodd" clip-rule="evenodd" d="M244.817 101.569C239.246 101.569 234.715 97.0817 234.715 91.5652C234.715 86.0488 239.246 81.561 244.817 81.561C250.387 81.561 254.918 86.0488 254.918 91.5652C254.918 97.0817 250.387 101.569 244.817 101.569ZM244.817 86.8048C242.165 86.8048 240.01 88.9397 240.01 91.5652C240.01 94.1898 242.165 96.3257 244.817 96.3257C247.467 96.3257 249.623 94.1898 249.623 91.5652C249.623 88.9397 247.467 86.8048 244.817 86.8048Z" fill="black"/>
</svg>
