<svg width="332" height="184" viewBox="0 0 332 184" fill="none" xmlns="http://www.w3.org/2000/svg">
<rect width="332" height="184" rx="20" fill="#9D59FE"/>
<path d="M126.63 75.8998L134.147 99.5287H134.436L141.968 75.8998H149.257L138.536 107H130.062L119.326 75.8998H126.63ZM152.878 107V83.6749H159.348V107H152.878ZM156.128 80.6681C155.166 80.6681 154.341 80.3492 153.653 79.7114C152.975 79.0635 152.636 78.2891 152.636 77.388C152.636 76.4971 152.975 75.7328 153.653 75.095C154.341 74.4471 155.166 74.1231 156.128 74.1231C157.09 74.1231 157.91 74.4471 158.588 75.095C159.277 75.7328 159.621 76.4971 159.621 77.388C159.621 78.2891 159.277 79.0635 158.588 79.7114C157.91 80.3492 157.09 80.6681 156.128 80.6681ZM164.651 107V75.8998H171.12V87.5928H171.318C171.601 86.9651 172.011 86.3273 172.548 85.6794C173.094 85.0213 173.803 84.4747 174.674 84.0393C175.554 83.5939 176.648 83.3712 177.954 83.3712C179.655 83.3712 181.224 83.8166 182.661 84.7075C184.099 85.5883 185.248 86.9195 186.108 88.7013C186.969 90.473 187.399 92.6951 187.399 95.3678C187.399 97.9696 186.979 100.166 186.139 101.958C185.309 103.74 184.175 105.092 182.737 106.013C181.31 106.924 179.71 107.38 177.939 107.38C176.683 107.38 175.615 107.172 174.734 106.757C173.864 106.342 173.15 105.821 172.593 105.193C172.036 104.555 171.611 103.912 171.318 103.264H171.029V107H164.651ZM170.984 95.3374C170.984 96.7244 171.176 97.9342 171.561 98.9668C171.945 99.9994 172.502 100.804 173.231 101.381C173.96 101.948 174.846 102.232 175.889 102.232C176.941 102.232 177.832 101.943 178.561 101.366C179.29 100.779 179.842 99.9691 180.216 98.9364C180.601 97.8937 180.793 96.694 180.793 95.3374C180.793 93.991 180.606 92.8065 180.232 91.784C179.857 90.7615 179.305 89.9617 178.576 89.3847C177.847 88.8076 176.952 88.5191 175.889 88.5191C174.836 88.5191 173.945 88.7975 173.216 89.3543C172.497 89.9111 171.945 90.7008 171.561 91.7233C171.176 92.7458 170.984 93.9505 170.984 95.3374ZM202.346 107.456C199.946 107.456 197.881 106.97 196.15 105.998C194.429 105.016 193.103 103.629 192.171 101.837C191.24 100.035 190.774 97.9038 190.774 95.4437C190.774 93.0444 191.24 90.9387 192.171 89.1265C193.103 87.3144 194.414 85.9021 196.104 84.8897C197.805 83.8774 199.8 83.3712 202.087 83.3712C203.626 83.3712 205.059 83.6192 206.385 84.1153C207.721 84.6012 208.886 85.3352 209.878 86.3172C210.88 87.2992 211.66 88.5343 212.216 90.0225C212.773 91.5005 213.052 93.2317 213.052 95.216V96.9927H193.356V92.9837H206.962C206.962 92.0523 206.76 91.2272 206.355 90.5084C205.95 89.7896 205.388 89.2278 204.669 88.8228C203.96 88.4077 203.135 88.2002 202.194 88.2002C201.212 88.2002 200.341 88.428 199.582 88.8836C198.833 89.329 198.246 89.9314 197.82 90.6906C197.395 91.4398 197.177 92.275 197.167 93.1963V97.0079C197.167 98.162 197.38 99.1592 197.805 99.9994C198.24 100.84 198.853 101.488 199.643 101.943C200.432 102.399 201.369 102.627 202.452 102.627C203.171 102.627 203.829 102.525 204.426 102.323C205.023 102.12 205.535 101.817 205.96 101.412C206.385 101.007 206.709 100.511 206.932 99.9235L212.915 100.318C212.611 101.756 211.989 103.011 211.047 104.084C210.116 105.147 208.911 105.978 207.433 106.575C205.965 107.162 204.269 107.456 202.346 107.456Z" fill="white"/>
</svg>
