<svg width="332" height="184" viewBox="0 0 332 184" fill="none" xmlns="http://www.w3.org/2000/svg">
<rect width="332" height="184" rx="20" fill="url(#paint0_linear_178_1072)"/>
<path d="M73.1255 95.4759C73.1255 97.4859 71.3015 99.2079 69.3455 99.2079H67.4375V104.896H69.3455C74.5475 104.896 78.8195 100.648 78.8195 95.4699V84.9819H88.7795V104.896H94.4675V79.2939H73.1255V95.4759V95.4759Z" fill="white"/>
<path d="M120.07 93.5139C120.07 97.5579 117.148 101.2 113.098 101.2H112.816C108.772 101.2 105.844 98.0199 105.844 93.5139V79.2939H100.156V93.5139C100.156 102.058 106.012 106.324 112.816 106.324H113.098C116.134 106.324 118.504 105.316 120.07 103.48V105.19C120.07 110.572 116.638 112.732 113.098 112.732H112.816C109.78 112.732 106.948 110.65 105.844 107.986L101.11 109.732C102.904 114.286 107.668 117.712 112.816 117.712H113.098C120.364 117.712 125.758 112.414 125.758 105.196V79.2939H120.07V93.5139Z" fill="white"/>
<path d="M151.366 79.2939V89.2479H137.14V79.2939H131.452V104.896H137.14V94.9359H151.366V104.896H157.054V79.2939H151.366Z" fill="white"/>
<path d="M178.87 80.176L187.096 100.708L195.322 80.176H199.624V105.34H196.306V95.542L196.618 84.964L188.356 105.34H185.812L177.568 85.012L177.898 95.536V105.334H174.58V80.176H178.864H178.87Z" fill="white"/>
<path d="M205.006 81.676C205.006 81.16 205.162 80.722 205.48 80.362C205.798 80.008 206.266 79.828 206.89 79.828C207.514 79.828 207.982 80.008 208.306 80.362C208.63 80.722 208.792 81.16 208.792 81.676C208.792 82.192 208.63 82.624 208.306 82.972C207.982 83.32 207.508 83.488 206.89 83.488C206.272 83.488 205.798 83.314 205.48 82.972C205.162 82.624 205.006 82.192 205.006 81.676ZM208.462 105.34H205.264V86.638H208.462V105.34V105.34Z" fill="white"/>
<path d="M221.08 103.078C222.22 103.078 223.216 102.73 224.068 102.04C224.92 101.35 225.394 100.486 225.484 99.448H228.508C228.448 100.522 228.082 101.542 227.404 102.508C226.726 103.474 225.814 104.248 224.68 104.824C223.546 105.4 222.346 105.688 221.074 105.688C218.53 105.688 216.502 104.836 214.996 103.138C213.49 101.44 212.74 99.112 212.74 96.166V95.632C212.74 93.814 213.076 92.194 213.742 90.778C214.408 89.362 215.368 88.258 216.622 87.478C217.87 86.692 219.352 86.302 221.056 86.302C223.156 86.302 224.896 86.932 226.282 88.186C227.668 89.44 228.412 91.072 228.502 93.076H225.478C225.388 91.864 224.926 90.874 224.104 90.094C223.282 89.314 222.262 88.93 221.056 88.93C219.43 88.93 218.17 89.512 217.282 90.682C216.388 91.852 215.944 93.544 215.944 95.758V96.364C215.944 98.518 216.388 100.18 217.276 101.344C218.164 102.508 219.43 103.09 221.08 103.09V103.078Z" fill="white"/>
<path d="M246.01 89.2299H239.734V105.34H236.536V89.2299H230.38V86.6379H246.004V89.2299H246.01Z" fill="white"/>
<path d="M247.738 95.818C247.738 93.988 248.098 92.338 248.818 90.874C249.538 89.41 250.54 88.282 251.824 87.484C253.108 86.692 254.572 86.29 256.222 86.29C258.766 86.29 260.83 87.172 262.402 88.936C263.974 90.7 264.76 93.046 264.76 95.974V96.196C264.76 98.02 264.412 99.652 263.716 101.098C263.02 102.544 262.024 103.672 260.728 104.476C259.432 105.28 257.944 105.688 256.258 105.688C253.72 105.688 251.668 104.806 250.096 103.042C248.524 101.278 247.738 98.944 247.738 96.04V95.818V95.818ZM250.954 96.196C250.954 98.272 251.434 99.934 252.4 101.194C253.36 102.448 254.65 103.078 256.264 103.078C257.878 103.078 259.18 102.442 260.134 101.17C261.088 99.898 261.568 98.116 261.568 95.818C261.568 93.766 261.082 92.104 260.11 90.832C259.138 89.56 257.842 88.924 256.228 88.924C254.614 88.924 253.378 89.554 252.406 90.808C251.44 92.062 250.954 93.862 250.954 96.202V96.196Z" fill="white"/>
<defs>
<linearGradient id="paint0_linear_178_1072" x1="166" y1="-13" x2="166.445" y2="199.18" gradientUnits="userSpaceOnUse">
<stop stop-color="#F87822"/>
<stop offset="1" stop-color="#FDAC2A"/>
</linearGradient>
</defs>
</svg>
