<svg width="332" height="184" viewBox="0 0 332 184" fill="none" xmlns="http://www.w3.org/2000/svg">
<rect width="332" height="184" rx="20" fill="#192434"/>
<g clip-path="url(#clip0_178_1101)">
<path fill-rule="evenodd" clip-rule="evenodd" d="M110.729 85.8154C112.241 85.0295 113.465 85.7514 113.465 87.4295L113.469 100.247C113.469 101.926 112.245 103.923 110.732 104.709L90.7367 115.27C89.2242 116.056 88 115.334 88 113.655V100.838C88 99.1594 89.2242 97.1623 90.7367 96.3764L110.729 85.8154Z" fill="#1BE0F5"/>
<path d="M110.505 78.2822C111.596 78.8357 112.358 80.1138 111.977 81.3219C111.756 82.0259 110.989 82.624 110.326 82.9675L104.468 85.9318L90.1269 93.3656C89.3215 93.8245 88 93.6127 88 92.4292C88 92.0141 88.2834 91.6918 88.6084 91.4405L93.6727 87.3336C92.4954 86.7125 91.2967 85.8833 90.7413 85.5896C89.3095 84.8296 89.2128 83.6141 89.2128 83.1501C89.2128 82.6856 89.2128 70.5081 89.2128 70.5081C89.2128 70.067 89.1909 69.7121 89.3264 69.2783C89.632 68.3059 90.67 67.7811 91.6384 68.0871C91.8089 68.1409 91.9453 68.2253 92.1077 68.3145L110.505 78.2822Z" fill="#CE4B85"/>
<path d="M220.197 100.248H214.133V74.4915C214.133 73.0499 215.483 71.6606 216.994 71.6606H220.197V100.248Z" fill="white"/>
<path d="M152.279 100.248L152.259 89.512C152.259 86.2156 153.14 82.7483 155.871 80.6C158.33 78.6889 161.958 78.2036 165.014 78.2036V84.0645C163.275 84.0645 160.643 83.9059 159.314 85.2212C158.527 85.9944 158.343 87.2043 158.343 88.8509V100.248H152.279Z" fill="white"/>
<path fill-rule="evenodd" clip-rule="evenodd" d="M225.814 103.376V108.089C226.504 108.089 227.128 108.087 227.89 108.086C229.645 108.085 231.695 108.088 233.212 107.094C234.216 106.327 235.057 105.034 235.73 103.216L244.454 77.6161H240.208C238.754 77.6161 237.918 78.8701 237.581 80.1922L233.632 93.7256L228.687 77.6161H222.623L230.435 100.077C230.826 101.227 230.7 102.065 230.057 102.591C228.879 103.553 227.245 103.376 225.814 103.376Z" fill="white"/>
<path fill-rule="evenodd" clip-rule="evenodd" d="M133.481 105.607V97.1867C134.803 99.4681 137.565 100.486 140.119 100.486C142.751 100.486 144.908 99.4413 146.591 97.3519C148.416 95.0196 149.086 92.0451 149.108 89.1509C149.14 85.9787 148.526 82.4512 146.097 80.1605C144.095 78.2495 141.276 77.6271 138.568 77.6271C135.625 77.6271 132.338 78.483 130.289 80.6615C128.781 82.1735 128.027 84.494 128.027 87.6131C128.027 94.6036 128.027 101.595 128.027 108.585H130.882C132.439 108.585 133.481 107.138 133.481 105.607ZM143.322 89.1834C143.322 91.1603 142.907 92.7302 142.06 93.8874C141.218 95.0441 140.071 95.6225 138.616 95.6225C137.048 95.6225 135.846 95.0441 135.004 93.8874C134.163 92.8427 133.742 91.2728 133.742 89.1834C133.742 86.1603 134.714 82.4959 138.448 82.4959C142.176 82.4959 143.322 86.0959 143.322 89.1834Z" fill="white"/>
<path fill-rule="evenodd" clip-rule="evenodd" d="M195.331 105.607V97.1867C196.653 99.4681 199.415 100.486 201.968 100.486C204.601 100.486 206.758 99.4413 208.441 97.3519C210.266 95.0196 210.936 92.0451 210.958 89.1509C210.99 85.9787 210.376 82.4512 207.947 80.1605C205.945 78.2495 203.125 77.6271 200.417 77.6271C197.475 77.6271 194.188 78.483 192.14 80.6615C190.631 82.1735 189.877 84.494 189.877 87.6131C189.877 94.6036 189.877 101.595 189.877 108.585H192.732C194.289 108.585 195.331 107.138 195.331 105.607ZM205.172 89.1834C205.172 91.1603 204.757 92.7302 203.909 93.8874C203.068 95.0441 201.92 95.6225 200.466 95.6225C198.898 95.6225 197.696 95.0441 196.854 93.8874C196.013 92.8427 195.592 91.2728 195.592 89.1834C195.592 86.1603 196.564 82.4959 200.298 82.4959C204.026 82.4959 205.172 86.0959 205.172 89.1834Z" fill="white"/>
<path fill-rule="evenodd" clip-rule="evenodd" d="M187.08 93.2865H182.879C182.206 93.2865 181.689 93.4221 181.322 93.7054C180.761 94.1303 180.38 94.7496 179.764 95.1101C179.036 95.5359 178.169 95.6884 177.332 95.6884C175.877 95.6884 174.784 95.2456 174.057 94.3665C173.269 93.5402 172.849 92.4239 172.794 90.7185H187.41C187.41 87.1482 186.919 83.4282 184.419 80.5849C182.574 78.6077 180.271 77.6161 176.911 77.6161C173.72 77.6161 171.226 78.6313 169.435 80.6677C167.698 82.6447 166.833 85.4009 166.833 88.9185C166.833 92.6018 167.729 95.2865 169.519 97.2696C171.31 99.3058 173.804 100.247 176.995 100.247C179.627 100.247 181.815 99.7237 183.552 98.4607C185.289 97.2508 186.46 95.5999 187.08 93.2865ZM181.364 86.847H172.794C172.849 85.4188 173.269 84.3209 174.057 83.5477C174.838 82.7745 175.848 82.391 177.08 82.391C178.419 82.391 179.459 82.7807 180.186 83.5477C180.859 84.2621 181.25 85.3599 181.364 86.847Z" fill="white"/>
</g>
<defs>
<clipPath id="clip0_178_1101">
<rect width="156.706" height="48" fill="white" transform="translate(88 68)"/>
</clipPath>
</defs>
</svg>
